<?xml version="1.0" standalone="no"?>
<!DOCTYPE svg PUBLIC "-//W3C//DTD SVG 20010904//EN"
 "http://www.w3.org/TR/2001/REC-SVG-20010904/DTD/svg10.dtd">
<svg version="1.0" xmlns="http://www.w3.org/2000/svg"
 width="1204.000000pt" height="1280.000000pt" viewBox="0 0 1204.000000 1280.000000"
 preserveAspectRatio="xMidYMid meet">
<g transform="translate(0.000000,1280.000000) scale(0.100000,-0.100000)"
fill="#000000" stroke="none">
<path d="M4335 12790 c-38 -5 -131 -14 -205 -20 -932 -80 -1933 -510 -2650
-1139 -63 -55 -145 -127 -181 -158 -36 -32 -110 -94 -164 -138 -136 -111 -338
-315 -454 -460 -321 -399 -534 -864 -621 -1355 -47 -265 -70 -589 -52 -724 6
-44 16 -133 22 -196 64 -644 328 -1326 743 -1915 467 -662 1080 -1185 1827
-1559 524 -262 959 -379 1461 -393 692 -20 1324 179 2149 675 207 125 529 329
550 348 8 8 -66 -24 -165 -70 -279 -129 -453 -196 -695 -266 -865 -250 -1681
-205 -2561 138 -358 141 -917 415 -1109 545 -384 259 -771 685 -1068 1175
-107 175 -274 516 -345 702 -122 318 -195 617 -239 970 -20 161 -17 624 5 780
90 642 332 1193 757 1724 111 139 136 163 280 268 431 313 917 504 1490 585
160 22 724 25 895 5 821 -100 1623 -393 2295 -838 85 -56 193 -133 240 -171
595 -479 1189 -1487 1418 -2408 86 -343 115 -568 116 -890 1 -264 -10 -380
-54 -593 -92 -448 -279 -809 -620 -1193 l-65 -73 65 49 c99 76 407 387 499
504 274 347 463 729 565 1143 76 306 101 543 93 883 -13 516 -119 985 -338
1498 -300 701 -813 1371 -1370 1789 -571 429 -1251 694 -1939 758 -69 6 -161
15 -204 21 -91 10 -269 10 -371 -1z"/>
<path d="M3155 12119 c-805 -92 -1485 -501 -1926 -1159 -232 -344 -374 -731
-435 -1180 -20 -151 -23 -535 -5 -685 100 -826 455 -1589 1099 -2358 135 -161
111 -154 281 -82 467 197 712 514 740 958 23 375 -68 756 -389 1627 -285 773
-384 1144 -397 1500 -25 675 326 1095 1122 1345 l140 44 -80 -1 c-44 0 -111
-4 -150 -9z"/>
<path d="M7305 6040 c-245 -96 -587 -343 -691 -499 l-27 -42 145 -147 c241
-245 395 -427 648 -767 373 -502 664 -947 1450 -2220 475 -769 784 -1238 1034
-1570 277 -368 543 -632 728 -726 65 -33 245 -69 344 -69 59 0 204 23 299 46
421 107 706 469 774 984 7 47 16 117 22 156 8 59 7 81 -6 125 -72 239 -191
445 -424 734 -370 460 -926 999 -1975 1915 -1367 1193 -1503 1315 -1831 1644
-127 127 -273 282 -324 344 -51 61 -98 112 -105 112 -6 -1 -33 -10 -61 -20z"/>
</g>
</svg>
